<svg xmlns="http://www.w3.org/2000/svg" version="1.1" xmlns:xlink="http://www.w3.org/1999/xlink"  width="1000" height="156" viewBox="0 0 1000 156"><g transform="matrix(1,0,0,1,-0.6060606060606233,0.1943743151001769)"><svg viewBox="0 0 396 62" data-background-color="#ffffff" preserveAspectRatio="xMidYMid meet" height="156" width="1000" xmlns="http://www.w3.org/2000/svg" xmlns:xlink="http://www.w3.org/1999/xlink"><g id="tight-bounds" transform="matrix(1,0,0,1,0.2400000000000091,-0.07725133036032616)"><svg viewBox="0 0 395.52 62.15450266072065" height="62.15450266072065" width="395.52"><g><svg viewBox="0 0 475.33619619602337 74.69732218649517" height="62.15450266072065" width="395.52"><g><rect width="2.437149639079099" height="27.160205787781344" x="70.99907367977384" y="23.768558199356914" fill="#ceb700" opacity="1" stroke-width="0" stroke="transparent" fill-opacity="1" class="rect-o-0"  rx="1%" id="o-0"></rect></g><g transform="matrix(1,0,0,1,79.81619619602336,23.836120900321543)"><svg viewBox="0 0 395.52 27.025080385852085" height="27.025080385852085" width="395.52"><g id="textblocktransform"><svg viewBox="0 0 395.52 27.025080385852085" height="27.025080385852085" width="395.52" id="textblock"><g><svg viewBox="0 0 395.52 27.025080385852085" height="27.025080385852085" width="395.52"><g transform="matrix(1,0,0,1,0,0)"><svg width="395.52" viewBox="3.4000000953674316 -33.5 494.1700134277344 34" height="27.025080385852085" data-palette-color="#ceb700"><g class="undefined-text-0" id="text-0"><path d="M28-9.95L32-8.45Q30.95-5.65 29-3.63 27.05-1.6 24.43-0.55 21.8 0.5 18.7 0.5L18.7 0.5Q14 0.5 10.58-1.58 7.15-3.65 5.28-7.45 3.4-11.25 3.4-16.5L3.4-16.5Q3.4-21.75 5.28-25.55 7.15-29.35 10.58-31.43 14-33.5 18.6-33.5L18.6-33.5Q21.8-33.5 24.3-32.63 26.8-31.75 28.58-30.03 30.35-28.3 31.4-25.8L31.4-25.8 27.45-23.95Q26.35-26.8 24.28-28.28 22.2-29.75 18.9-29.75L18.9-29.75Q15.55-29.75 13-28.18 10.45-26.6 9.03-23.65 7.6-20.7 7.6-16.5L7.6-16.5Q7.6-12.35 8.95-9.38 10.3-6.4 12.8-4.83 15.3-3.25 18.7-3.25L18.7-3.25Q22-3.25 24.45-4.93 26.9-6.6 28-9.95L28-9.95ZM39.7-33L52.2-33Q57.25-33 60.3-30.4 63.35-27.8 63.35-23.35L63.35-23.35Q63.35-18.9 60.27-16.43 57.2-13.95 52.15-13.95L52.15-13.95 51.8-13.7 43.7-13.7 43.7 0 39.7 0 39.7-33ZM43.7-17.45L52.15-17.45Q55.7-17.45 57.42-18.93 59.15-20.4 59.15-23.35L59.15-23.35Q59.15-26.3 57.42-27.78 55.7-29.25 52.15-29.25L52.15-29.25 43.7-29.25 43.7-17.45ZM51.1-14.45L54.45-16.65 65.35 0 60.6 0 51.1-14.45ZM90.9-33L95.65-33 83.85-12.9 83.85 0 79.85 0 79.85-12.9 68.05-33 72.8-33 79.2-21.7 81.85-17 84.5-21.7 90.9-33ZM101.54-33L113.19-33Q116.54-33 119.02-31.78 121.49-30.55 122.89-28.3 124.29-26.05 124.29-22.95L124.29-22.95Q124.29-19.85 122.89-17.6 121.49-15.35 119.02-14.13 116.54-12.9 113.19-12.9L113.19-12.9 105.54-12.9 105.54 0 101.54 0 101.54-33ZM105.54-16.65L112.59-16.65Q116.49-16.65 118.29-18.28 120.09-19.9 120.09-22.95L120.09-22.95Q120.09-26.05 118.29-27.65 116.49-29.25 112.59-29.25L112.59-29.25 105.54-29.25 105.54-16.65ZM128.24-33L155.24-33 155.24-29.25 143.74-29.25 143.74 0 139.74 0 139.74-29.25 128.24-29.25 128.24-33ZM175.54-33.5L175.54-33.5Q180.24-33.5 183.66-31.43 187.09-29.35 188.96-25.55 190.84-21.75 190.84-16.5L190.84-16.5Q190.84-11.25 188.96-7.45 187.09-3.65 183.66-1.58 180.24 0.5 175.54 0.5L175.54 0.5Q170.84 0.5 167.41-1.58 163.99-3.65 162.11-7.45 160.24-11.25 160.24-16.5L160.24-16.5Q160.24-21.75 162.11-25.55 163.99-29.35 167.41-31.43 170.84-33.5 175.54-33.5ZM175.54-29.75L175.54-29.75Q172.14-29.75 169.64-28.18 167.14-26.6 165.79-23.63 164.44-20.65 164.44-16.5L164.44-16.5Q164.44-12.35 165.79-9.38 167.14-6.4 169.64-4.83 172.14-3.25 175.54-3.25L175.54-3.25Q178.99-3.25 181.46-4.83 183.94-6.4 185.29-9.38 186.64-12.35 186.64-16.5L186.64-16.5Q186.64-20.65 185.29-23.63 183.94-26.6 181.46-28.18 178.99-29.75 175.54-29.75Z" fill="#ceb700" ></path><path d="M196.24-33L206.89-33Q214.64-33 219.07-28.73 223.49-24.45 223.49-16.5L223.49-16.5Q223.49-8.55 219.07-4.28 214.64 0 206.89 0L206.89 0 196.24 0 196.24-33ZM200.24-3.75L207.29-3.75Q212.94-3.75 216.12-7.13 219.29-10.5 219.29-16.5L219.29-16.5Q219.29-22.5 216.12-25.88 212.94-29.25 207.29-29.25L207.29-29.25 200.24-29.25 200.24-3.75ZM232.39 0L228.19 0 241.04-33 245.79-33 258.59 0 254.34 0 244.94-24.6 243.39-29.2 243.29-29.2 241.84-24.75 232.39 0ZM252.14-9.15L234.49-9.15 234.49-12.9 252.14-12.9 252.14-9.15ZM275.89-33.5L275.89-33.5Q280.24-33.5 283.39-31.73 286.54-29.95 288.64-26.5L288.64-26.5 285.29-23.9Q283.44-27.1 281.11-28.43 278.79-29.75 275.49-29.75L275.49-29.75Q272.84-29.75 271.11-29 269.39-28.25 268.59-27.03 267.79-25.8 267.79-24.25L267.79-24.25Q267.79-22.5 268.89-21.18 269.99-19.85 273.29-19.1L273.29-19.1 280.44-17.5Q285.19-16.45 287.06-14.33 288.94-12.2 288.94-9.05L288.94-9.05Q288.94-6.25 287.36-4.08 285.79-1.9 282.94-0.7 280.09 0.5 276.24 0.5L276.24 0.5Q272.64 0.5 269.91-0.48 267.19-1.45 265.24-3.1 263.29-4.75 262.04-6.8L262.04-6.8 265.54-9.65Q266.49-7.75 267.99-6.3 269.49-4.85 271.61-4.05 273.74-3.25 276.49-3.25L276.49-3.25Q279.04-3.25 280.91-3.88 282.79-4.5 283.79-5.73 284.79-6.95 284.79-8.7L284.79-8.7Q284.79-10.3 283.74-11.58 282.69-12.85 279.79-13.5L279.79-13.5 272.04-15.25Q268.99-15.95 267.11-17.18 265.24-18.4 264.41-20.08 263.59-21.75 263.59-23.7L263.59-23.7Q263.59-26.35 265.06-28.58 266.54-30.8 269.31-32.15 272.09-33.5 275.89-33.5ZM319.23-33L323.23-33 323.23 0 319.23 0 319.23-33ZM297.33-33L301.33-33 301.33 0 297.33 0 297.33-33ZM299.43-18.6L321.08-18.6 321.08-14.85 299.43-14.85 299.43-18.6ZM345.73 0L334.03 0 334.03-33 345.78-33Q351.63-33 354.33-30.55 357.03-28.1 357.03-23.9L357.03-23.9Q357.03-21.4 355.58-19.38 354.13-17.35 351.48-16.8L351.48-16.8 351.48-16.75Q354.43-16.2 356.16-14.08 357.88-11.95 357.88-9.25L357.88-9.25Q357.88-5.05 354.73-2.53 351.58 0 345.73 0L345.73 0ZM338.03-14.75L338.03-3.75 346.68-3.75Q350.23-3.75 351.96-5.2 353.68-6.65 353.68-9.25L353.68-9.25Q353.68-11.9 351.96-13.33 350.23-14.75 346.68-14.75L346.68-14.75 338.03-14.75ZM338.03-29.25L338.03-18.5 345.83-18.5Q352.83-18.5 352.83-23.9L352.83-23.9Q352.83-29.25 345.83-29.25L345.83-29.25 338.03-29.25ZM379.98-33.5L379.98-33.5Q384.68-33.5 388.1-31.43 391.53-29.35 393.4-25.55 395.28-21.75 395.28-16.5L395.28-16.5Q395.28-11.25 393.4-7.45 391.53-3.65 388.1-1.58 384.68 0.5 379.98 0.5L379.98 0.5Q375.28 0.5 371.85-1.58 368.43-3.65 366.55-7.45 364.68-11.25 364.68-16.5L364.68-16.5Q364.68-21.75 366.55-25.55 368.43-29.35 371.85-31.43 375.28-33.5 379.98-33.5ZM379.98-29.75L379.98-29.75Q376.58-29.75 374.08-28.18 371.58-26.6 370.23-23.63 368.88-20.65 368.88-16.5L368.88-16.5Q368.88-12.35 370.23-9.38 371.58-6.4 374.08-4.83 376.58-3.25 379.98-3.25L379.98-3.25Q383.43-3.25 385.9-4.83 388.38-6.4 389.73-9.38 391.08-12.35 391.08-16.5L391.08-16.5Q391.08-20.65 389.73-23.63 388.38-26.6 385.9-28.18 383.43-29.75 379.98-29.75ZM404.18 0L399.98 0 412.83-33 417.58-33 430.38 0 426.13 0 416.73-24.6 415.18-29.2 415.08-29.2 413.63-24.75 404.18 0ZM423.93-9.15L406.28-9.15 406.28-12.9 423.93-12.9 423.93-9.15ZM437.07-33L449.57-33Q454.62-33 457.67-30.4 460.72-27.8 460.72-23.35L460.72-23.35Q460.72-18.9 457.65-16.43 454.57-13.95 449.52-13.95L449.52-13.95 449.17-13.7 441.07-13.7 441.07 0 437.07 0 437.07-33ZM441.07-17.45L449.52-17.45Q453.07-17.45 454.8-18.93 456.52-20.4 456.52-23.35L456.52-23.35Q456.52-26.3 454.8-27.78 453.07-29.25 449.52-29.25L449.52-29.25 441.07-29.25 441.07-17.45ZM448.47-14.45L451.82-16.65 462.72 0 457.97 0 448.47-14.45ZM470.32-33L480.97-33Q488.72-33 493.15-28.73 497.57-24.45 497.57-16.5L497.57-16.5Q497.57-8.55 493.15-4.28 488.72 0 480.97 0L480.97 0 470.32 0 470.32-33ZM474.32-3.75L481.37-3.75Q487.02-3.75 490.2-7.13 493.37-10.5 493.37-16.5L493.37-16.5Q493.37-22.5 490.2-25.88 487.02-29.25 481.37-29.25L481.37-29.25 474.32-29.25 474.32-3.75Z" fill="#ceb700" ></path></g></svg></g></svg></g></svg></g></svg></g><g><svg viewBox="0 0 64.61910080260343 74.69732218649517" height="74.69732218649517" width="64.61910080260343"><g><svg xmlns="http://www.w3.org/2000/svg" xmlns:xlink="http://www.w3.org/1999/xlink" version="1.1" x="0" y="0" viewBox="17.299999237060547 12.199999809265137 65.39999389648438 75.60000610351562" style="enable-background:new 0 0 100 100;" xml:space="preserve" height="74.69732218649517" width="64.61910080260343" class="icon-icon-0"  id="icon-0"><path d="M50 12.2L17.3 31.1v37.8L50 87.8l32.7-18.9V31.1L50 12.2zM32.1 37.4L50 16l17 21.4H32.1zM67.3 39.4L50 70.4l-18.2-31H67.3zM48.1 71l-27.7-4.5 9.8-25.9L48.1 71zM68.9 40.7l10.7 25.9-27.7 4.5L68.9 40.7zM69.2 37.1L52.6 16l27 15.6L69.2 37.1zM29.8 37.1l-9.4-5.5 26.8-15.5L29.8 37.1zM28.8 38.8l-9.5 25V33.3L28.8 38.8zM49 73.2v11.7L20.9 68.7 49 73.2zM51 73.2l28.1-4.5L51 84.9V73.2zM70.3 38.8l10.5-5.6v30.9L70.3 38.8z" fill="#ceb700" ></path></svg></g></svg></g></svg></g><defs></defs></svg><rect width="395.52" height="62.15450266072065" fill="none" stroke="none" visibility="hidden"></rect></g></svg></g></svg>